<svg width="150" height="154" viewBox="0 0 150 154" fill="none" xmlns="http://www.w3.org/2000/svg">
<path d="M48.5068 111.84C50.0428 111.84 51.1948 112.192 51.9628 112.896C52.7948 113.6 53.2108 114.592 53.2108 115.872C53.2108 118.624 51.6428 120 48.5068 120H11.4508C10.0428 120 8.92275 119.616 8.09075 118.848C7.32275 118.016 6.93875 116.992 6.93875 115.776C6.93875 114.304 7.51475 112.96 8.66675 111.744L31.2268 87.072C34.2348 83.808 36.4108 80.832 37.7548 78.144C39.0988 75.456 39.7708 72.8 39.7708 70.176C39.7708 66.784 38.7788 64.192 36.7948 62.4C34.8748 60.544 32.1228 59.616 28.5388 59.616C23.0988 59.616 17.6908 61.696 12.3148 65.856C11.6108 66.304 11.0028 66.656 10.4908 66.912C10.0428 67.104 9.56275 67.2 9.05075 67.2C8.15475 67.2 7.38675 66.784 6.74675 65.952C6.10675 65.12 5.78675 64.128 5.78675 62.976C5.78675 61.376 6.42675 60.096 7.70675 59.136C10.3948 56.832 13.6268 55.008 17.4028 53.664C21.1788 52.256 24.9868 51.552 28.8268 51.552C35.1628 51.552 40.1868 53.184 43.8988 56.448C47.6748 59.648 49.5627 64 49.5627 69.504C49.5627 73.408 48.6988 77.12 46.9708 80.64C45.3068 84.16 42.4908 88.096 38.5228 92.448L20.3788 111.84H48.5068Z" fill="#F9BDBD" fill-opacity="0.25"/>
<path d="M80.3226 94.8387V1.93549H57.0968V94.8387V98.7097V118.065H122.903V94.8387H80.3226Z" fill="#F7DEA6"/>
<path d="M82.258 92.9032V0H55.1613V120H124.839V92.9032H82.258ZM78.3871 3.87097V94.0374L64.7013 107.723L67.438 110.46L81.1238 96.7742H120.968V104.516H82.258V116.129H61.769L64.2716 113.626L61.5348 110.89L59.0322 113.392V98.7097H72.5806V94.8387H59.0322V90.9677H64.8387V87.0968H59.0322V83.2258H72.5806V79.3548H59.0322V75.4839H64.8387V71.6129H59.0322V67.7419H72.5806V63.871H59.0322V60H64.8387V56.129H59.0322V52.2581H72.5806V48.3871H59.0322V44.5161H64.8387V40.6452H59.0322V36.7742H72.5806V32.9032H59.0322V29.0323H64.8387V25.1613H59.0322V3.87097H78.3871ZM93.8709 108.387H97.7419V116.129H93.8709V108.387ZM90 116.129H86.129V108.387H90V116.129ZM101.613 108.387H105.484V116.129H101.613V108.387ZM109.355 108.387H113.226V116.129H109.355V108.387ZM117.097 116.129V108.387H120.968V116.129H117.097Z" fill="#333333"/>
<path d="M68.7097 19.3548C71.9109 19.3548 74.5161 16.7497 74.5161 13.5484C74.5161 10.3471 71.9109 7.74194 68.7097 7.74194C65.5084 7.74194 62.9032 10.3471 62.9032 13.5484C62.9032 16.7497 65.5084 19.3548 68.7097 19.3548ZM68.7097 11.6129C69.778 11.6129 70.6451 12.48 70.6451 13.5484C70.6451 14.6168 69.778 15.4839 68.7097 15.4839C67.6413 15.4839 66.7742 14.6168 66.7742 13.5484C66.7742 12.48 67.6413 11.6129 68.7097 11.6129Z" fill="#333333"/>
</svg>
