<svg width="159" height="155" viewBox="0 0 159 155" fill="none" xmlns="http://www.w3.org/2000/svg">
<path d="M38.7148 85.748C42.8108 86.9 45.9148 88.884 48.0268 91.7C50.1388 94.452 51.1948 97.94 51.1948 102.164C51.1948 108.052 49.1148 112.692 44.9548 116.084C40.8588 119.476 35.2908 121.172 28.2508 121.172C24.0908 121.172 20.0908 120.5 16.2508 119.156C12.4748 117.812 9.27475 115.956 6.65075 113.588C5.37075 112.564 4.73075 111.284 4.73075 109.748C4.73075 108.596 5.05075 107.636 5.69075 106.868C6.33075 106.036 7.09875 105.62 7.99475 105.62C8.95475 105.62 10.0428 106.036 11.2588 106.868C14.0108 108.916 16.6988 110.484 19.3228 111.572C22.0108 112.596 24.8908 113.108 27.9628 113.108C37.0508 113.108 41.5948 109.236 41.5948 101.492C41.5948 97.716 40.3788 94.9 37.9468 93.044C35.5788 91.124 31.9628 90.164 27.0988 90.164H21.8188C20.6028 90.164 19.6428 89.78 18.9388 89.012C18.2348 88.18 17.8828 87.22 17.8828 86.132C17.8828 85.108 18.2348 84.212 18.9388 83.444C19.6428 82.612 20.6028 82.196 21.8188 82.196H25.5627C30.2348 82.196 33.7868 81.236 36.2188 79.316C38.7148 77.332 39.9628 74.452 39.9628 70.676C39.9628 67.348 38.9388 64.756 36.8908 62.9C34.9068 61.044 32.0908 60.116 28.4427 60.116C23.0668 60.116 17.6908 62.196 12.3148 66.356C11.0988 67.188 10.0108 67.604 9.05075 67.604C8.15475 67.604 7.38675 67.22 6.74675 66.452C6.10675 65.62 5.78675 64.628 5.78675 63.476C5.78675 61.94 6.42675 60.66 7.70675 59.636C10.3308 57.268 13.4988 55.412 17.2108 54.068C20.9868 52.724 24.8588 52.052 28.8268 52.052C35.1628 52.052 40.2188 53.652 43.9948 56.852C47.7708 60.052 49.6268 64.34 49.5627 69.716C49.5627 73.428 48.6028 76.724 46.6828 79.604C44.7628 82.42 42.1068 84.468 38.7148 85.748Z" fill="#F9BDBD" fill-opacity="0.25"/>
<path d="M64.1613 46.4516C64.1613 58.2101 73.6931 67.742 85.4516 67.742V25.1613C73.6931 25.1613 64.1613 34.6932 64.1613 46.4516Z" fill="#A8DCEC"/>
<path d="M151.258 65.8065H108.677V46.4517H151.258V65.8065Z" fill="#F9BDBD"/>
<path d="M143.516 32.9033H112.548V25.1613H143.516V32.9033Z" fill="#F7DEA6"/>
<path d="M153.194 38.7097H151.258V15.4839H58.3548V0H48.6774C43.3416 0 39 4.34161 39 9.67742V83.2258C39 88.5616 43.3416 92.9032 48.6774 92.9032H100.935V114.194C100.935 117.394 103.541 120 106.742 120H153.194C156.394 120 159 117.394 159 114.194V44.5161C159 41.3152 156.394 38.7097 153.194 38.7097ZM42.871 9.67742C42.871 6.4765 45.4765 3.87097 48.6774 3.87097H54.4839V73.5484H48.6774C46.5 73.5484 44.4889 74.2723 42.871 75.4876V9.67742ZM48.6774 89.0323C45.4765 89.0323 42.871 86.4267 42.871 83.2258C42.871 80.0249 45.4765 77.4193 48.6774 77.4193H58.3548V19.3548H147.387V38.7097H107.342C104.092 29.5218 95.3114 23.2258 85.4516 23.2258C72.6442 23.2258 62.2258 33.6442 62.2258 46.4516C62.2258 59.2591 72.6442 69.6774 85.4516 69.6774C91.2193 69.6774 96.7158 67.5113 100.935 63.7377V89.0323H48.6774ZM100.935 44.5161H87.3871V27.2055C94.682 27.9426 101.004 32.787 103.58 39.6585C101.99 40.6952 100.935 42.4824 100.935 44.5161ZM83.5161 65.7082C73.7499 64.7338 66.0968 56.4693 66.0968 46.4516C66.0968 36.434 73.7499 28.1694 83.5161 27.1951V65.7082ZM87.3871 48.3871H100.935V58.022C97.676 62.3749 92.7522 65.1468 87.3871 65.6883V48.3871ZM155.129 114.194C155.129 115.26 154.26 116.129 153.194 116.129H106.742C105.676 116.129 104.806 115.26 104.806 114.194V44.5161C104.806 43.4501 105.676 42.5806 106.742 42.5806H153.194C154.26 42.5806 155.129 43.4501 155.129 44.5161V114.194Z" fill="black"/>
<path d="M139.645 112.258H151.258V100.645H139.645V112.258ZM143.516 104.516H147.387V108.387H143.516V104.516Z" fill="black"/>
<path d="M124.161 112.258H135.774V100.645H124.161V112.258ZM128.032 104.516H131.903V108.387H128.032V104.516Z" fill="black"/>
<path d="M108.677 112.258H120.29V100.645H108.677V112.258ZM112.548 104.516H116.419V108.387H112.548V104.516Z" fill="black"/>
<path d="M139.645 96.7742H151.258V85.1613H139.645V96.7742ZM143.516 89.0322H147.387V92.9032H143.516V89.0322Z" fill="black"/>
<path d="M124.161 96.7742H135.774V85.1613H124.161V96.7742ZM128.032 89.0322H131.903V92.9032H128.032V89.0322Z" fill="black"/>
<path d="M108.677 96.7742H120.29V85.1613H108.677V96.7742ZM112.548 89.0322H116.419V92.9032H112.548V89.0322Z" fill="black"/>
<path d="M139.645 81.2903H151.258V69.6774H139.645V81.2903ZM143.516 73.5484H147.387V77.4194H143.516V73.5484Z" fill="black"/>
<path d="M124.161 81.2903H135.774V69.6774H124.161V81.2903ZM128.032 73.5484H131.903V77.4194H128.032V73.5484Z" fill="black"/>
<path d="M108.677 81.2903H120.29V69.6774H108.677V81.2903ZM112.548 73.5484H116.419V77.4194H112.548V73.5484Z" fill="black"/>
<path d="M112.548 23.2258H143.516V27.0968H112.548V23.2258Z" fill="black"/>
<path d="M112.548 30.9677H143.516V34.8387H112.548V30.9677Z" fill="black"/>
<path d="M112.548 58.0645H147.387V61.9355H112.548V58.0645Z" fill="black"/>
</svg>
