<svg width="159" height="154" viewBox="0 0 159 154" fill="none" xmlns="http://www.w3.org/2000/svg">
<path d="M51.0028 97.612C54.1388 97.612 55.7068 98.924 55.7068 101.548C55.7068 104.172 54.1388 105.484 51.0028 105.484H44.8588V114.988C44.8588 116.588 44.4108 117.836 43.5148 118.732C42.6188 119.564 41.4348 119.98 39.9628 119.98C38.5548 119.98 37.4028 119.564 36.5068 118.732C35.6108 117.836 35.1628 116.588 35.1628 114.988V105.484H8.18675C6.77875 105.484 5.69075 105.1 4.92275 104.332C4.15475 103.564 3.77075 102.572 3.77075 101.356C3.77075 100.076 4.18675 98.828 5.01875 97.612L35.6428 53.548C36.6668 52.076 38.1068 51.34 39.9628 51.34C41.3068 51.34 42.4588 51.788 43.4188 52.684C44.3788 53.516 44.8588 54.732 44.8588 56.332V97.612H51.0028ZM35.1628 97.612V67.66L14.4268 97.612H35.1628Z" fill="#F9BDBD" fill-opacity="0.25"/>
<path d="M144.428 26.4387L143.516 26.2374V23.2258C143.516 11.4677 133.984 1.93549 122.226 1.93549C112.641 1.93549 104.549 8.27419 101.88 16.9839L99.7277 16.5058C97.3684 15.9813 95.129 17.7774 95.129 20.1948C95.129 21.9658 96.36 23.4987 98.0884 23.8839L131.895 31.3974L135.987 32.3071L142.788 33.8187C145.148 34.3413 147.387 32.5452 147.387 30.1277C147.387 28.3568 146.156 26.8239 144.428 26.4387Z" fill="#A8DCEC"/>
<path d="M56.4194 56.129L60.1897 48.3871L56.4194 40.6452L65.0787 40.0065L69.9678 32.9032V1.93549H50.6129V118.065H69.9678V63.871L65.0787 56.7677L56.4194 56.129Z" fill="#F7DEA6"/>
<path d="M143.315 35.8103C143.417 35.8161 143.52 35.8432 143.621 35.8432C144.904 35.8432 146.158 35.4077 147.184 34.5852C148.544 33.4974 149.323 31.8716 149.323 30.1277C149.323 27.6426 147.755 25.5194 145.452 24.7374V23.2258C145.452 10.4187 135.033 0 122.226 0C112.651 0 104.079 5.95355 100.62 14.7213L100.146 14.6168C98.4464 14.2374 96.6909 14.6458 95.3322 15.7374C93.9716 16.8252 93.1935 18.451 93.1935 20.1948C93.1935 22.68 94.7613 24.8032 97.0645 25.5852V32.9032C97.0645 42.7839 103.275 51.2206 111.991 54.569C110.303 55.3645 108.697 56.3419 107.23 57.5168L104.127 60H90.6096L89.6264 55.4052C90.6096 54.7026 91.258 53.5568 91.258 52.2581H99.7567L98.8006 49.411C97.5967 45.7935 94.4709 43.2368 90.7838 42.6968C90.1277 41.4813 88.86 40.6452 87.3871 40.6452H79.6451C78.2187 40.6452 76.9838 41.429 76.3122 42.5806H71.9032C69.7684 42.5806 68.0322 44.3168 68.0322 46.4516V50.3226C68.0322 52.4574 69.7684 54.1935 71.9032 54.1935H76.3122C76.7148 54.8826 77.3148 55.4381 78.0445 55.7729L79.74 62.5568C78.4916 63.9329 77.7096 65.7406 77.7096 67.7419C77.7096 71.0961 79.8658 73.9297 82.8542 75.0039L84.8922 83.16C85.198 84.389 85.9316 85.409 86.9013 86.1077C85.9606 87.9 85.4516 89.88 85.4516 91.9355V108.927L83.2761 109.653C81.1045 110.377 79.6451 112.401 79.6451 114.691C79.6451 117.619 82.0258 120 84.9542 120H108.677V119.923C109.272 119.865 109.864 119.777 110.446 119.644L132.972 114.445L134.977 117.455C136.039 119.048 137.818 120 139.734 120C142.887 120 145.452 117.435 145.452 114.283V102.581C145.452 99.3793 142.846 96.7742 139.645 96.7742H133.788C135.017 95.1523 135.774 93.1548 135.774 90.9677V60H135.745C135.639 57.0581 133.949 54.5419 131.499 53.2316C137.849 49.7187 142.37 43.3161 143.315 35.8103ZM122.226 3.87097C132.898 3.87097 141.581 12.5535 141.581 23.2258V23.8239L104.458 15.5748C107.479 8.58 114.455 3.87097 122.226 3.87097ZM100.935 32.9032V26.4987L116.419 29.94V36.7742H120.29C121.359 36.7742 122.226 37.6413 122.226 38.7097C122.226 39.7781 121.359 40.6452 120.29 40.6452H116.419V51.8671C107.595 50.069 100.935 42.2497 100.935 32.9032ZM110.886 59.6342C112.38 58.6161 114.002 57.8071 115.705 57.2245L110.886 59.6342ZM83.1851 60.3774L82.1226 56.129H85.8232L86.6516 60H85.4516C84.658 60 83.9071 60.1548 83.1851 60.3774ZM91.258 48.3871V46.7981C92.2219 47.1213 93.1006 47.6497 93.7916 48.3871H91.258ZM79.6451 44.5161H87.3871L87.3909 52.2581H79.6451V44.5161ZM71.9032 46.4516H75.7742V50.3226H71.9032V46.4516ZM85.4516 63.871H109.417L113.288 71.6129H85.4516C83.3167 71.6129 81.5806 69.8768 81.5806 67.7419C81.5806 65.6071 83.3167 63.871 85.4516 63.871ZM95.3187 98.6284C93.929 100.848 93.1935 103.411 93.1935 106.032C93.1935 106.835 93.2767 107.619 93.4084 108.387H89.3226V91.9355C89.3226 90.1606 89.8587 88.4555 90.8593 87.0039C92.6071 86.6864 94.0548 85.5019 94.7245 83.9032C97.3606 82.831 100.481 83.1387 102.869 84.7219V86.5432L95.3187 98.6284ZM94.8561 79.8116L93.929 75.4839H102.871V80.3574C100.343 79.3316 97.4942 79.1516 94.8561 79.8116ZM89.969 75.4839L91.2271 81.3503C91.2484 81.4452 91.258 81.5419 91.258 81.6368V81.9019C91.258 82.6316 90.6638 83.2258 89.9322 83.2258C89.3245 83.2258 88.7942 82.8116 88.6451 82.2213L86.9632 75.4839H89.969ZM106.742 75.4839H116.921L131.644 67.3026C131.735 67.2523 131.814 67.1884 131.903 67.1342V85.1613H106.742V75.4839ZM84.9542 116.129C84.1606 116.129 83.5161 115.485 83.5161 114.691C83.5161 114.072 83.9109 113.522 84.5013 113.325L87.7006 112.258H94.68C95.4096 113.712 96.3832 115.018 97.5561 116.129H84.9542ZM141.581 102.581V114.283C141.581 115.301 140.752 116.129 139.734 116.129C139.115 116.129 138.542 115.823 138.197 115.306L135.774 111.674V100.645H139.645C140.714 100.645 141.581 101.512 141.581 102.581ZM118.355 100.645H126.097H131.903V110.717L109.577 115.87C108.832 116.042 108.07 116.129 107.162 116.129C101.594 116.129 97.0645 111.6 97.0645 106.032C97.0645 104.137 97.5948 102.285 98.5993 100.68L105.879 89.0323H131.903V90.9677C131.903 94.169 129.298 96.7742 126.097 96.7742H118.355H110.613V100.645H118.355ZM129.766 63.9194L117.248 70.8735L113.21 62.7987L125.671 56.5664C126.25 56.28 126.894 56.129 127.535 56.129H127.746C130.039 56.129 131.903 57.9929 131.903 60.2845C131.903 61.7961 131.084 63.1858 129.766 63.9194ZM120.29 52.2581V44.5161C123.492 44.5161 126.097 41.911 126.097 38.7097C126.097 35.5084 123.492 32.9032 120.29 32.9032V30.8013L131.475 33.2864L132.315 29.5065L98.5084 21.9929C97.6703 21.809 97.0645 21.0523 97.0645 20.1948C97.0645 19.6335 97.3161 19.1071 97.7535 18.7568C98.1909 18.4065 98.758 18.2729 99.3077 18.3968L144.008 28.3297C144.846 28.5135 145.452 29.2703 145.452 30.1277C145.452 30.689 145.2 31.2155 144.763 31.5658C144.325 31.9161 143.756 32.0477 143.208 31.9258L136.407 30.4161L135.567 34.1961L139.514 35.0729C138.432 44.7252 130.227 52.2581 120.29 52.2581Z" fill="#333333"/>
<path d="M73.2638 55.6703L69.9677 60.4568L66.1451 54.9058L59.4096 54.4084L62.3438 48.3871L59.4096 42.3658L66.1451 41.8684L69.9677 36.3174L73.2638 41.1058L76.4496 38.909L71.9032 32.3013V0H48.6774V120H71.9032V64.4729L76.4516 57.8671L73.2638 55.6703ZM52.5483 116.129V3.87097H68.0322V32.3013L64.0103 38.1445L53.429 38.9245L58.0374 48.3871L53.429 57.8497L64.0103 58.6297L68.0322 64.4729V116.129H52.5483Z" fill="#333333"/>
<path d="M108.677 30.9677H104.806V34.8387H108.677V30.9677Z" fill="#333333"/>
<path d="M60.2903 7.74194H56.4193V23.2258H60.2903V7.74194Z" fill="#333333"/>
<path d="M60.2903 27.0968H56.4193V30.9678H60.2903V27.0968Z" fill="#333333"/>
<path d="M64.1613 65.8065H60.2903V81.2903H64.1613V65.8065Z" fill="#333333"/>
<path d="M60.2903 100.645H56.4193V112.258H60.2903V100.645Z" fill="#333333"/>
</svg>
