<svg width="162" height="150" viewBox="0 0 162 150" fill="none" xmlns="http://www.w3.org/2000/svg">
<path d="M47.8348 107.34C49.3708 107.34 50.5228 107.692 51.2908 108.396C52.0588 109.1 52.4428 110.092 52.4428 111.372C52.4428 114.124 50.9068 115.5 47.8348 115.5H15.7708C12.6348 115.5 11.0668 114.124 11.0668 111.372C11.0668 110.092 11.4508 109.1 12.2188 108.396C13.0508 107.692 14.2348 107.34 15.7708 107.34H26.8108V59.436L16.9228 65.676C16.2828 66.06 15.6428 66.252 15.0028 66.252C13.9148 66.252 12.9548 65.772 12.1228 64.812C11.3548 63.852 10.9708 62.764 10.9708 61.548C10.9708 60.076 11.6108 58.924 12.8907 58.092L27.6748 48.684C29.1468 47.788 30.5548 47.34 31.8988 47.34C33.3068 47.34 34.4588 47.788 35.3548 48.684C36.2508 49.58 36.6988 50.796 36.6988 52.332V107.34H47.8348Z" fill="#F9BDBD" fill-opacity="0.25"/>
<path d="M96.1938 21.2903H49.7421V52.2579H96.1938V21.2903Z" fill="#F9BDBD"/>
<path d="M156.193 11.6127H47.8066C44.6054 11.6127 42 14.2181 42 17.4193V89.032C42 92.2332 44.6054 94.8386 47.8066 94.8386H80.7096V104.516H71.032V108.387H132.968V104.516H123.29V94.8386H156.193C159.395 94.8386 162 92.2332 162 89.032V17.4193C162 14.2181 159.395 11.6127 156.193 11.6127ZM47.8066 15.4838H156.194C157.262 15.4838 158.129 16.3528 158.129 17.4193V77.4193H45.871V17.4193C45.871 16.3528 46.738 15.4838 47.8066 15.4838ZM119.419 104.516H84.5807V94.8386H119.419V104.516ZM156.193 90.9676H47.8066C46.738 90.9676 45.871 90.0986 45.871 89.032V81.2903H158.129V89.0324C158.129 90.0986 157.262 90.9676 156.193 90.9676Z" fill="#333333"/>
<path d="M109.969 58.0644H115.549V58.4205C113.301 59.2216 111.678 61.351 111.678 63.871C111.678 67.0722 114.283 69.6776 117.484 69.6776C120.004 69.6776 122.133 68.0538 122.935 65.8065H139.133C139.934 68.0538 142.063 69.6776 144.583 69.6776C147.784 69.6776 150.39 67.0722 150.39 63.871C150.39 61.351 148.766 59.222 146.519 58.4205V58.0644H152.141L154.464 34.8386H113.613V38.7096H150.184L148.635 54.1934H113.386L109.515 23.2258H102V27.0969H106.097L109.969 58.0644ZM139.13 61.9355H122.932C122.348 60.2963 121.057 59.005 119.417 58.4205V58.0644H142.643V58.4205C141.006 59.005 139.715 60.2963 139.13 61.9355ZM117.484 65.8065C116.415 65.8065 115.548 64.9375 115.548 63.871C115.548 62.8045 116.415 61.9355 117.484 61.9355C118.552 61.9355 119.419 62.8045 119.419 63.871C119.419 64.9375 118.552 65.8065 117.484 65.8065ZM144.581 65.8065C143.512 65.8065 142.645 64.9375 142.645 63.871C142.645 62.8045 143.512 61.9355 144.581 61.9355C145.649 61.9355 146.516 62.8045 146.516 63.871C146.516 64.9375 145.649 65.8065 144.581 65.8065Z" fill="#333333"/>
<path d="M146.516 44.5162H115.548V48.3873H146.516V44.5162Z" fill="#333333"/>
<path d="M96.1938 58.0645H49.7421V61.9355H96.1938V58.0645Z" fill="#333333"/>
<path d="M96.1938 67.7421H49.7421V71.6131H96.1938V67.7421Z" fill="#333333"/>
</svg>
